<svg width="1024" height="1024" viewBox="0 0 1024 1024" fill="none" xmlns="http://www.w3.org/2000/svg">
  <defs>
    <linearGradient id="bg" x1="128" y1="96" x2="896" y2="928" gradientUnits="userSpaceOnUse">
      <stop stop-color="#151B2F"/>
      <stop offset="1" stop-color="#0D1223"/>
    </linearGradient>
    <linearGradient id="gold" x1="256" y1="220" x2="768" y2="804" gradientUnits="userSpaceOnUse">
      <stop stop-color="#FFE16A"/>
      <stop offset="1" stop-color="#FFD744"/>
    </linearGradient>
    <filter id="shadow" x="0" y="0" width="1024" height="1024" filterUnits="userSpaceOnUse" color-interpolation-filters="sRGB">
      <feDropShadow dx="0" dy="12" stdDeviation="18" flood-color="#000000" flood-opacity="0.45"/>
    </filter>
  </defs>

  <rect x="64" y="64" width="896" height="896" rx="180" fill="url(#bg)"/>

  <g filter="url(#shadow)">
    <rect x="184" y="210" width="656" height="130" rx="36" fill="#0A0F1F" stroke="#2C355A" stroke-width="8"/>
    <rect x="212" y="236" width="602" height="78" rx="24" fill="#141C35"/>
    <rect x="234" y="248" width="250" height="54" rx="18" fill="url(#gold)"/>
    <path d="M280 264L318 264L299 288L280 264Z" fill="#0D1223"/>
    <text x="330" y="287" fill="#0D1223" font-size="44" font-family="Inter,Arial,sans-serif" font-weight="900" letter-spacing="1">TAB</text>

    <text x="510" y="292" fill="#EDEFF8" font-size="46" font-family="Inter,Arial,sans-serif" font-weight="700">Franz</text>

    <rect x="734" y="254" width="14" height="48" rx="5" fill="#38F772"/>
    <rect x="754" y="244" width="14" height="58" rx="5" fill="#38F772"/>
    <rect x="774" y="234" width="14" height="68" rx="5" fill="#38F772"/>
    <rect x="794" y="224" width="14" height="78" rx="5" fill="#38F772"/>
  </g>

  <g>
    <rect x="210" y="420" width="604" height="76" rx="18" fill="#1A2545"/>
    <rect x="210" y="526" width="604" height="76" rx="18" fill="#1A2545"/>
    <rect x="210" y="632" width="604" height="76" rx="18" fill="#1A2545"/>

    <rect x="234" y="442" width="118" height="32" rx="10" fill="#FFD744"/>
    <rect x="234" y="548" width="118" height="32" rx="10" fill="#8AC8FF"/>
    <rect x="234" y="654" width="118" height="32" rx="10" fill="#B9FF9C"/>

    <text x="370" y="470" fill="#EDEFF8" font-size="33" font-family="Inter,Arial,sans-serif" font-weight="700">Nitrado</text>
    <text x="370" y="576" fill="#EDEFF8" font-size="33" font-family="Inter,Arial,sans-serif" font-weight="700">Builder</text>
    <text x="370" y="682" fill="#EDEFF8" font-size="33" font-family="Inter,Arial,sans-serif" font-weight="700">Moderator</text>
  </g>

  <text x="512" y="842" text-anchor="middle" fill="#FFD744" font-size="72" font-family="Inter,Arial,sans-serif" font-weight="900" letter-spacing="1.5">TablistCustomizer</text>
</svg>
